<svg xmlns="http://www.w3.org/2000/svg" width="35" height="39" viewBox="0 0 35 39" fill="none">
  <g clip-path="url(#clip0_5_1676)">
    <path d="M15.4719 12.629C14.283 14.782 12.4688 16.507 10.1404 17.4C9.23129 17.7507 8.03418 17.7303 8.15348 16.4866C8.22753 15.7118 9.06674 15.039 9.67558 14.676C10.7123 14.0562 12.041 13.8523 13.1558 13.3711C13.8799 13.0571 13.2546 12.001 12.5347 12.315C10.5436 13.1754 8.36329 13.3793 7.232 15.4671C6.62727 16.5844 6.42981 18.1381 7.79147 18.7742C9.26832 19.4634 11.3005 18.3501 12.5264 17.5672C14.2295 16.4825 15.5665 15.0022 16.5332 13.2447C16.9199 12.5556 15.8545 11.9357 15.4719 12.629Z" fill="#46A358"/>
    <path d="M12.8967 12.119C11.3992 12.2821 9.91417 12.2903 8.42909 12.013C7.88607 11.9111 7.34717 11.7724 6.82061 11.6052C6.37632 11.4747 5.94849 11.3157 5.52477 11.1241C4.89536 10.333 4.95707 9.89256 5.71812 9.7947C7.94778 8.09018 11.4321 9.88033 13.6207 10.7081C14.3653 10.9895 14.6861 9.80693 13.9498 9.52964C12.0451 8.80787 9.9553 7.72318 7.86139 7.95561C6.66017 8.0861 3.8916 8.60398 3.57073 10.1005C2.83025 13.5667 11.1072 13.5422 12.8967 13.3465C13.6783 13.2567 13.6865 12.0334 12.8967 12.119Z" fill="#46A358"/>
    <path d="M14.353 9.54986C12.4812 8.07778 10.8192 5.78606 10.9097 3.30268C10.9509 2.1976 11.6584 1.72865 12.6828 2.22614C13.2463 2.49936 13.6372 3.19666 13.9457 3.72269C14.6615 4.95419 14.9618 6.36102 15.2251 7.7434C15.3732 8.5141 16.5621 8.18788 16.414 7.41717C16.019 5.35381 15.4554 3.20481 13.9169 1.66341C13.0078 0.75406 11.4939 -0.289855 10.4243 0.933483C7.92312 3.79202 11.1977 8.61604 13.4808 10.4144C14.0979 10.8996 14.9782 10.0392 14.353 9.54986Z" fill="#46A358"/>
    <path d="M16.3852 7.75588C16.6567 5.79038 17.5206 2.05104 19.7996 1.41491C21.9182 0.827707 21.7084 4.20412 21.116 5.32143C20.5195 6.4469 19.3471 7.50305 18.4955 8.44502C17.969 9.02815 18.837 9.89672 19.3676 9.30951C20.5894 7.95569 22.416 6.40205 22.6792 4.49772C22.8849 3.02156 22.7738 0.791007 21.1325 0.13856C19.635 -0.456797 18.1541 0.897029 17.3025 1.96133C16.0478 3.52721 15.4637 5.46823 15.1922 7.4215C15.0852 8.20035 16.2741 8.53473 16.3852 7.75588Z" fill="#46A358"/>
    <path d="M19.454 9.46471C20.8897 8.274 23.5554 7.4462 25.3079 8.51866C27.5787 9.91327 24.3617 10.7492 23.3004 10.8185C22.165 10.896 21.0296 10.8267 19.9024 10.6962C19.1167 10.6065 19.1208 11.8298 19.9024 11.9195C21.7454 12.1316 24.2342 12.4048 25.9497 11.4995C27.0151 10.9368 27.7803 9.57481 27.1262 8.42895C26.3939 7.14445 24.3329 6.83454 22.996 6.87124C21.3381 6.92017 19.8448 7.5563 18.586 8.60022C17.973 9.10587 18.8493 9.97036 19.454 9.46471Z" fill="#46A358"/>
    <path d="M19.5857 11.8786C20.8568 12.3435 22.1198 13.0449 22.8438 14.2274C23.7488 15.7117 23.7694 18.4439 21.1366 17.9341C18.8205 17.4856 17.1462 15.0471 16.6731 12.9307C16.5003 12.1641 15.3115 12.4862 15.4842 13.2569C15.9038 15.1408 16.9529 16.8046 18.5243 17.9586C19.7585 18.8679 21.9264 19.9526 23.3786 18.921C24.8719 17.8607 24.8719 15.6669 24.1972 14.1581C23.3991 12.3802 21.7002 11.3485 19.923 10.6961C19.1661 10.4269 18.8452 11.6095 19.5857 11.8786Z" fill="#46A358"/>
    <path d="M7.10447 15.2467C3.5008 17.3998 0.843305 19.7976 0.213897 24.1119C-0.473103 28.7972 0.625275 33.6947 1.62904 38.2577C1.7977 39.0284 2.98658 38.7022 2.81792 37.9315C1.92934 33.8945 1.0202 29.7107 1.29582 25.5554C1.59613 21.025 3.96566 18.5498 7.72154 16.307C8.40442 15.8992 7.78736 14.839 7.10447 15.2467Z" fill="#46A358"/>
    <path d="M23.0083 13.8645C28.0477 14.2559 31.6143 18.2685 32.9678 22.8642C34.4405 27.8676 33.6178 33.1361 32.8156 38.1763C32.6922 38.947 33.881 39.2773 34.0045 38.5025C34.9424 32.5897 35.8844 26.3099 33.4614 20.6091C31.6267 16.2908 27.8173 13.0163 23.0083 12.6411C22.2144 12.58 22.2185 13.8033 23.0083 13.8645Z" fill="#46A358"/>
    <path d="M8.32625 17.7833C2.29957 22.1302 4.25361 31.9577 5.47129 38.0662C5.6235 38.8369 6.8165 38.5107 6.66017 37.74C6.02254 34.543 5.43015 31.3093 5.49186 28.039C5.55357 24.8583 6.15829 20.8498 8.94743 18.8395C9.58507 18.3787 8.97212 17.3184 8.32625 17.7833Z" fill="#46A358"/>
    <path d="M15.0934 13.8278C12.8514 17.2491 11.4034 21.074 10.8768 25.1273C10.6012 27.2519 10.5806 29.405 10.8357 31.5336C11.1113 33.8579 11.8641 36.0925 12.1438 38.4169C12.2343 39.1876 13.4726 39.1998 13.378 38.4169C12.8926 34.3595 11.642 30.6242 11.9711 26.473C12.3125 22.1628 13.7935 18.0605 16.163 14.4435C16.5908 13.7829 15.5254 13.1713 15.0934 13.8278Z" fill="#46A358"/>
    <path d="M18.1088 17.6079C19.9477 20.6173 20.3344 24.0222 20.6552 27.4598C20.9885 31.036 21.26 34.6163 21.4903 38.2007C21.5397 38.9836 22.7738 38.9877 22.7245 38.2007C22.4653 34.1433 22.1732 30.0859 21.7536 26.0407C21.4245 22.8641 20.8692 19.7528 19.1743 16.988C18.7629 16.3193 17.6933 16.9309 18.1088 17.6079Z" fill="#46A358"/>
    <path d="M23.7241 18.1789C28.3192 23.9082 28.4714 31.2237 28.3069 38.2049C28.2904 38.9919 29.5245 38.9919 29.541 38.2049C29.7138 30.8404 29.4176 23.3291 24.5962 17.3144C24.1026 16.6986 23.2346 17.5713 23.7241 18.1789Z" fill="#46A358"/>
    <path d="M15.9532 19.6712C15.8833 19.9444 15.8174 20.2136 15.7475 20.4868C15.6529 20.8701 16.2453 21.0332 16.344 20.6499C16.4139 20.3767 16.4798 20.1075 16.5497 19.8343C16.6443 19.4551 16.0519 19.292 15.9532 19.6712Z" fill="#46A358"/>
    <path d="M17.286 21.7957C17.286 22.1015 17.286 22.4074 17.286 22.7132C17.286 23.1087 17.9031 23.1087 17.9031 22.7132C17.9031 22.4074 17.9031 22.1015 17.9031 21.7957C17.9031 21.4001 17.286 21.4001 17.286 21.7957Z" fill="#46A358"/>
    <path d="M14.3077 23.7328C14.2748 24.1732 14.2378 24.6177 14.2049 25.0581C14.1761 25.4496 14.7931 25.4496 14.8219 25.0581C14.8548 24.6177 14.8919 24.1732 14.9248 23.7328C14.9536 23.3413 14.3365 23.3413 14.3077 23.7328Z" fill="#46A358"/>
    <path d="M18.3145 25.8733C18.3145 26.2811 18.3145 26.6889 18.3145 27.0967C18.3145 27.4922 18.9316 27.4922 18.9316 27.0967C18.9316 26.6889 18.9316 26.2811 18.9316 25.8733C18.9316 25.4778 18.3145 25.4778 18.3145 25.8733Z" fill="#46A358"/>
    <path d="M15.9491 28.1162C15.9491 28.5566 15.9491 29.0011 15.9491 29.4415C15.9491 29.8371 16.5662 29.8371 16.5662 29.4415C16.5662 29.0011 16.5662 28.5566 16.5662 28.1162C16.5662 27.7207 15.9491 27.7207 15.9491 28.1162Z" fill="#46A358"/>
    <path d="M14.6121 32.6018C14.6121 33.2135 14.6121 33.8252 14.6121 34.4368C14.6121 34.8324 15.2292 34.8324 15.2292 34.4368C15.2292 33.8252 15.2292 33.2135 15.2292 32.6018C15.2292 32.2063 14.6121 32.2063 14.6121 32.6018Z" fill="#46A358"/>
    <path d="M12.7815 28.6014C12.8514 29.0092 12.9255 29.417 12.9954 29.8247C13.0612 30.2121 13.6577 30.049 13.5919 29.6616C13.522 29.2539 13.4479 28.8461 13.378 28.4383C13.308 28.055 12.7115 28.2181 12.7815 28.6014Z" fill="#46A358"/>
    <path d="M17.5 34.6408C17.5329 35.0486 17.5699 35.4564 17.6028 35.8642C17.6357 36.2556 18.2528 36.2556 18.2199 35.8642C18.187 35.4564 18.15 35.0486 18.117 34.6408C18.0841 34.2494 17.4629 34.2453 17.5 34.6408Z" fill="#46A358"/>
    <path d="M19.3471 30.0532C19.38 30.461 19.417 30.8687 19.4499 31.2765C19.4828 31.6639 20.0999 31.668 20.067 31.2765C20.0341 30.8687 19.997 30.461 19.9641 30.0532C19.9312 29.6617 19.3142 29.6576 19.3471 30.0532Z" fill="#46A358"/>
    <path d="M26.431 16.4008C26.9082 16.8127 27.3854 17.2245 27.8626 17.6323C28.1629 17.8892 28.5989 17.457 28.2986 17.2001C27.8214 16.7882 27.3442 16.3764 26.867 15.9686C26.5708 15.7117 26.1307 16.1398 26.431 16.4008Z" fill="#46A358"/>
    <path d="M26.6902 19.8058C26.9576 20.2829 27.2291 20.764 27.4965 21.2411C27.6898 21.5837 28.2246 21.2779 28.0312 20.9312C27.7638 20.4541 27.4923 19.973 27.2249 19.4959C27.0275 19.1533 26.4968 19.4632 26.6902 19.8058Z" fill="#46A358"/>
    <path d="M29.1625 20.0055C29.467 20.4173 29.7714 20.8292 30.0758 21.2369C30.3062 21.5509 30.8451 21.2451 30.6106 20.927C30.3062 20.5152 30.0017 20.1033 29.6973 19.6955C29.4628 19.3856 28.928 19.6874 29.1625 20.0055Z" fill="#46A358"/>
    <path d="M30.6846 25.3393C30.7875 26.0529 30.8944 26.7665 30.9973 27.4801C31.0549 27.8675 31.6473 27.7044 31.5938 27.317C31.4909 26.6034 31.384 25.8898 31.2811 25.1761C31.2194 24.7888 30.627 24.9559 30.6846 25.3393Z" fill="#46A358"/>
    <path d="M28.6113 23.5083C28.7141 23.8468 28.817 24.1893 28.9198 24.5278C29.035 24.9029 29.6274 24.7439 29.5163 24.3647C29.4135 24.0262 29.3106 23.6837 29.2078 23.3452C29.0926 22.9701 28.4961 23.1291 28.6113 23.5083Z" fill="#46A358"/>
    <path d="M31.8817 31.1746C31.927 31.6599 31.9188 32.1452 31.8406 32.6263C31.7789 33.0096 32.3713 33.1768 32.4371 32.7894C32.5235 32.2512 32.5523 31.717 32.5029 31.1746C32.4618 30.7873 31.8447 30.7832 31.8817 31.1746Z" fill="#46A358"/>
    <path d="M30.4501 33.1116C30.4501 33.4868 30.4501 33.8578 30.4501 34.233C30.4501 34.6285 31.0672 34.6285 31.0672 34.233C31.0672 33.8578 31.0672 33.4868 31.0672 33.1116C31.0672 32.7161 30.4501 32.7161 30.4501 33.1116Z" fill="#46A358"/>
    <path d="M31.0878 22.8928C31.2565 23.3006 31.4292 23.7084 31.5979 24.1162C31.6637 24.2711 31.8036 24.3771 31.9764 24.3282C32.1204 24.2915 32.2561 24.1039 32.1903 23.953C32.0216 23.5453 31.8488 23.1375 31.6802 22.7297C31.6144 22.5747 31.4745 22.4687 31.3017 22.5177C31.1577 22.5544 31.0261 22.7419 31.0878 22.8928Z" fill="#46A358"/>
    <path d="M29.9359 29.9512C29.9359 30.1877 29.9359 30.4283 29.9359 30.6648C29.9359 31.0604 30.553 31.0604 30.553 30.6648C30.553 30.4283 30.553 30.1877 30.553 29.9512C30.553 29.5557 29.9359 29.5557 29.9359 29.9512Z" fill="#46A358"/>
    <path d="M31.1701 36.7817C31.1536 37.0712 31.0837 37.3485 30.9767 37.6177C30.915 37.7726 31.0466 37.952 31.1906 37.9928C31.3675 38.0417 31.5074 37.9316 31.5691 37.7808C31.7007 37.4586 31.7666 37.1283 31.7871 36.7817C31.8118 36.3862 31.1947 36.3902 31.1701 36.7817Z" fill="#46A358"/>
    <path d="M5.29027 18.8841C5.08047 19.1859 4.87066 19.4876 4.65675 19.7894C4.43049 20.1156 4.96528 20.4214 5.19154 20.0993C5.40134 19.7975 5.61114 19.4958 5.82506 19.194C6.0472 18.8678 5.51241 18.5619 5.29027 18.8841Z" fill="#46A358"/>
    <path d="M3.5296 23.3453C3.45144 23.7164 3.37739 24.0874 3.29923 24.4626C3.22107 24.8459 3.81345 25.0131 3.89573 24.6257C3.97389 24.2546 4.04794 23.8836 4.1261 23.5084C4.20426 23.1251 3.60776 22.962 3.5296 23.3453Z" fill="#46A358"/>
    <path d="M3.33213 21.1228C3.00714 21.551 2.76442 22.024 2.59987 22.5337C2.47646 22.9088 3.07296 23.0679 3.19637 22.6968C3.34858 22.236 3.57484 21.8201 3.86692 21.4327C4.10552 21.1146 3.56661 20.8129 3.33213 21.1228Z" fill="#46A358"/>
    <path d="M2.07743 25.1803C2.00338 25.69 1.92522 26.1957 1.85117 26.7054C1.79358 27.0887 2.39008 27.2559 2.44767 26.8685C2.52172 26.3588 2.59988 25.8531 2.67393 25.3434C2.73152 24.956 2.13502 24.7888 2.07743 25.1803Z" fill="#46A358"/>
    <path d="M2.69451 28.1163C2.64103 28.626 2.67394 29.1276 2.77267 29.6292C2.84672 30.0165 3.44322 29.8534 3.36917 29.466C3.28278 29.0175 3.26633 28.5689 3.31569 28.1163C3.3486 27.7248 2.73154 27.7289 2.69451 28.1163Z" fill="#46A358"/>
    <path d="M3.20049 31.9902C3.2334 32.296 3.27043 32.6018 3.30334 32.9077C3.31979 33.0708 3.43086 33.2135 3.61187 33.2135C3.76408 33.2135 3.94097 33.0749 3.9204 32.9077C3.88749 32.6018 3.85047 32.296 3.81756 31.9902C3.8011 31.827 3.69003 31.6843 3.50903 31.6843C3.35682 31.6843 3.18404 31.823 3.20049 31.9902Z" fill="#46A358"/>
    <path d="M2.20085 34.2901C2.43945 34.6775 2.61222 35.0852 2.71918 35.5297C2.8138 35.913 3.40618 35.7499 3.31568 35.3666C3.19638 34.8773 2.99892 34.4124 2.73564 33.9802C2.52583 33.6458 1.99516 33.9557 2.20085 34.2901Z" fill="#46A358"/>
    <path d="M3.51725 36.8632C3.58719 37.0345 3.65301 37.2017 3.72294 37.373C3.78465 37.5238 3.92863 37.6339 4.10141 37.585C4.2495 37.5442 4.38114 37.3648 4.31532 37.2099C4.24539 37.0386 4.17957 36.8714 4.10963 36.7001C4.04793 36.5492 3.90395 36.4391 3.73117 36.4881C3.58719 36.5248 3.45554 36.7083 3.51725 36.8632Z" fill="#46A358"/>
  </g>
  <defs>
    <clipPath id="clip0_5_1676">
      <rect width="35" height="39" fill="white"/>
    </clipPath>
  </defs>
</svg>