<svg xmlns="http://www.w3.org/2000/svg" width="44" height="49" viewBox="0 0 44 49" fill="none">
  <g clip-path="url(#clip0_5_1761)">
    <path d="M20.3006 44.0271C20.3204 44.5113 20.4594 44.9693 20.7176 45.3815C20.9393 45.7414 21.5052 45.3979 21.2835 45.0413C21.0882 44.7239 20.979 44.3869 20.9658 44.0172C20.9459 43.5952 20.284 43.6083 20.3006 44.0271Z" fill="#46A358"/>
    <path d="M28.8093 43.9843C28.7762 44.1675 28.7398 44.3474 28.7067 44.5307C28.6736 44.7041 28.7663 44.884 28.945 44.9298C29.1105 44.9723 29.3157 44.8676 29.3488 44.6942C29.3819 44.511 29.4183 44.3311 29.4514 44.1479C29.4845 43.9745 29.3918 43.7945 29.2131 43.7487C29.0476 43.7062 28.8424 43.8109 28.8093 43.9843Z" fill="#46A358"/>
    <path d="M33.3401 44.6354C33.767 44.6256 33.7537 43.9713 33.3268 43.9811C32.8999 43.9909 32.9131 44.6452 33.3401 44.6354Z" fill="#46A358"/>
    <path d="M8.48229 45.7936C8.90921 45.7838 8.89598 45.1295 8.46905 45.1393C8.04212 45.1491 8.05536 45.8034 8.48229 45.7936Z" fill="#46A358"/>
    <path d="M20.5885 4.38719C18.0335 11.8368 16.6402 19.6398 16.488 27.5082C16.4119 31.4636 16.6469 35.4224 17.1929 39.3418C17.4445 41.1478 17.7622 42.9472 18.1461 44.7303C18.4472 46.124 18.6028 47.7174 19.6486 48.7807C20.0954 49.2354 20.7804 48.5255 20.337 48.074C19.2084 46.9256 19.0926 44.498 18.8014 42.9963C18.434 41.0987 18.1428 39.1848 17.9276 37.2611C17.5206 33.6229 17.3849 29.9587 17.5139 26.3009C17.7754 18.92 19.1555 11.6209 21.5516 4.62929C21.7567 4.03057 20.7904 3.79174 20.5885 4.38719Z" fill="#46A358"/>
    <path d="M24.4408 4.52147C25.7778 11.9646 25.8109 19.5712 26.079 27.1059C26.2047 30.6459 26.4199 34.1956 26.347 37.7389C26.2709 41.4162 25.5461 44.8744 24.5698 48.4078C24.4011 49.0196 25.3641 49.2585 25.5329 48.6499C26.4496 45.3423 27.1777 42.0771 27.3167 38.6353C27.4723 34.7911 27.2108 30.9272 27.0751 27.0895C26.8038 19.4633 26.7475 11.7781 25.3939 4.24338C25.2814 3.62176 24.3282 3.90313 24.4408 4.52147Z" fill="#46A358"/>
    <path d="M31.629 17.3104C32.0824 27.4951 32.4928 37.8042 29.9776 47.7796C29.822 48.3947 30.7851 48.6335 30.9407 48.0217C33.4757 37.9613 33.0819 27.5606 32.6219 17.2908C32.5921 16.6593 31.5993 16.6757 31.629 17.3104Z" fill="#46A358"/>
    <path d="M28.8226 17.4608C27.416 19.0868 26.4761 20.9778 26.0624 23.0815C25.94 23.6999 26.903 23.9453 27.0255 23.3236C27.4061 21.3803 28.2368 19.6463 29.5374 18.1413C29.9511 17.6604 29.2396 16.9798 28.8226 17.4608Z" fill="#46A358"/>
    <path d="M38.6055 23.7164C38.5823 31.0908 37.5829 38.3965 35.6236 45.5124C35.4548 46.1242 36.4179 46.363 36.5867 45.7545C38.5658 38.5568 39.5752 31.1562 39.5984 23.6968C39.5984 23.0654 38.6055 23.085 38.6055 23.7164Z" fill="#46A358"/>
    <path d="M36.7191 21.5211C34.1509 24.4624 32.89 28.0841 31.9832 31.8106C31.8342 32.4257 32.7973 32.6678 32.9462 32.0527C33.8133 28.5029 34.9849 25.012 37.4372 22.2017C37.8509 21.724 37.1361 21.0402 36.7191 21.5211Z" fill="#46A358"/>
    <path d="M12.7549 10.4171C14.5222 14.5329 15.8062 18.7991 16.6005 23.1995C16.713 23.8212 17.6629 23.5365 17.5537 22.9182C16.7594 18.5178 15.472 14.2515 13.708 10.1357C13.4598 9.56317 12.5067 9.83472 12.7549 10.4171Z" fill="#46A358"/>
    <path d="M10.9148 10.7735C10.3952 17.0192 9.88552 23.3434 10.9379 29.5661C12.04 36.0571 14.7472 42.3911 16.8289 48.6236C17.0275 49.2224 17.9806 48.9443 17.782 48.3423C15.7665 42.2995 13.1619 36.1553 11.997 29.8867C10.8254 23.5756 11.3781 17.101 11.9076 10.7539C11.9606 10.1258 10.9677 10.1487 10.9148 10.7735Z" fill="#46A358"/>
    <path d="M4.59692 25.8625C7.90974 28.9117 10.5938 32.4779 12.6059 36.4857C12.8906 37.0517 13.7345 36.5348 13.4532 35.972C11.4046 31.8922 8.65769 28.2574 5.2853 25.1526C4.81865 24.724 4.13028 25.4307 4.59692 25.8625Z" fill="#46A358"/>
    <path d="M2.32328 27.1222C4.88815 34.6994 8.33998 41.9364 12.6258 48.7087C12.9634 49.2453 13.8139 48.7349 13.473 48.1951C9.23024 41.4914 5.81482 34.3395 3.27642 26.8408C3.07454 26.2454 2.1214 26.5202 2.32328 27.1222Z" fill="#46A358"/>
    <path d="M8.0686 46.7619C6.60579 44.1773 4.46123 42.0278 1.79376 40.6602C1.251 40.3821 0.731403 40.4541 1.78383 40.3494C2.16773 40.3102 2.56487 40.2938 2.94878 40.3004C4.19977 40.3134 5.33163 40.5359 6.40722 41.2066C7.65822 41.9853 8.75036 43.1042 9.86897 44.0563C10.3522 44.4685 11.0405 43.7618 10.5574 43.3496C9.14088 42.139 7.73765 40.6275 6.00015 39.875C5.03046 39.453 3.98135 39.3287 2.92892 39.3254C2.2604 39.3221 0.870403 39.1978 0.311095 39.7605C-0.781045 40.8533 1.31057 41.4978 1.96254 41.8806C4.19977 43.1827 5.96044 45.0541 7.22136 47.2854C7.53246 47.8285 8.37969 47.3148 8.0686 46.7619Z" fill="#46A358"/>
    <path d="M38.2812 38.7923C39.2509 36.6559 41.5046 35.9852 43.6492 35.5402C43.9636 35.4748 44.0894 35.0626 43.9305 34.8139C42.7656 32.9949 40.6442 32.8084 38.6551 32.9883C38.023 33.0439 38.0363 34.0254 38.675 33.9698C40.2801 33.8259 42.1169 33.816 43.0833 35.3276C43.1759 35.0855 43.2719 34.8434 43.3646 34.6013C40.9751 35.0953 38.483 35.9492 37.4141 38.3146C37.1526 38.8872 38.0197 39.3681 38.2812 38.7923Z" fill="#46A358"/>
    <path d="M4.43144 24.9137C3.99459 25.483 3.50478 26.1929 2.77999 26.4219C2.06514 26.6477 1.30064 26.3238 1.3569 25.4699C1.39993 24.8025 1.97909 24.315 2.54171 24.0369C3.19699 23.713 4.99406 23.5592 4.51749 24.8025C4.29244 25.3946 5.25551 25.6269 5.48056 25.0446C5.94058 23.8439 4.8352 22.7936 3.66363 22.7707C2.43249 22.7478 0.999474 23.5559 0.536142 24.7108C0.102595 25.7807 0.555999 27.1188 1.76066 27.4231C3.2334 27.7928 4.3487 26.6379 5.14961 25.5975C5.5302 25.0936 4.81866 24.4099 4.43144 24.9137Z" fill="#46A358"/>
    <path d="M12.9965 9.68071C12.3776 9.79522 11.4807 10.1944 10.8618 9.8672C10.243 9.53676 10.3555 8.71557 10.7129 8.24117C11.0869 7.74715 11.676 7.5672 12.2717 7.73079C12.7549 7.86493 14.2607 9.11471 13.2116 9.54657C12.6291 9.78541 12.9038 10.7309 13.4962 10.4888C14.7373 9.97844 14.6943 8.55852 13.8967 7.64573C13.0924 6.72311 11.6528 6.37304 10.5772 7.04374C9.63731 7.63264 9.11441 8.91514 9.62407 9.94245C10.3455 11.4016 12.0334 10.852 13.2811 10.623C13.9066 10.5052 13.6187 9.56293 12.9965 9.68071Z" fill="#46A358"/>
    <path d="M24.7916 3.6937C23.9311 3.9129 22.9283 4.17136 22.0414 3.9587C20.7937 3.66425 20.7473 2.25089 21.6244 1.51803C22.326 0.932397 23.4016 0.866963 24.2521 1.12215C24.7883 1.28247 25.4171 1.62927 25.5627 2.21162C25.7017 2.758 25.4336 3.29782 24.8776 3.43196C24.2587 3.58246 24.54 4.5247 25.1622 4.37421C26.6416 4.01432 26.9659 2.19199 26.0558 1.11888C25.0299 -0.0883685 22.9713 -0.294485 21.5913 0.372939C20.2939 1.0011 19.503 2.68929 20.3668 3.97833C21.3662 5.47349 23.62 5.00237 25.0729 4.6294C25.6918 4.47563 25.4105 3.53338 24.7916 3.6937Z" fill="#46A358"/>
    <path d="M31.8706 13.3419C30.4442 13.09 28.8821 13.4989 28.2302 14.8959C27.7006 16.0279 28.2004 17.4969 29.4315 17.9222C30.6726 18.3508 32.5557 17.8208 33.2441 16.6823C33.9027 15.5863 33.4261 14.1958 32.3869 13.5414C31.8475 13.2012 31.3676 14.0616 31.9037 14.3986C32.5722 14.8174 32.7907 15.7695 32.2446 16.3813C31.7581 16.9276 30.7189 17.1599 30.014 17.0356C29.1072 16.8753 28.7564 15.9363 29.2098 15.1609C29.7062 14.3136 30.7288 14.1369 31.629 14.2939C32.2545 14.4052 32.4994 13.4531 31.8706 13.3419Z" fill="#46A358"/>
    <path d="M39.5653 18.7662C38.3109 18.6844 36.5735 18.8611 36.2955 20.3791C36.0671 21.6224 37.4968 23.2648 38.5923 23.7064C41.7197 24.966 42.3883 18.6844 39.691 18.8513C39.0556 18.8905 39.0721 19.872 39.7109 19.8328C40.5879 19.7771 40.3728 21.8285 40.1742 22.2342C39.7076 23.1993 38.814 22.846 38.2249 22.2309C37.7715 21.7565 36.9574 20.9157 37.4273 20.2352C37.8807 19.5808 38.8934 19.7052 39.5851 19.7477C40.2238 19.7902 40.1974 18.8087 39.5653 18.7662Z" fill="#46A358"/>
    <path d="M21.6376 6.17667C21.5383 6.50711 21.4357 6.83755 21.3364 7.16799C21.214 7.57368 21.856 7.73072 21.9785 7.3283C22.0778 6.99786 22.1804 6.66742 22.2797 6.33698C22.4021 5.9313 21.7601 5.77425 21.6376 6.17667Z" fill="#46A358"/>
    <path d="M23.0508 6.23258C23.0541 6.45178 23.0607 6.66771 23.064 6.88692C23.0739 7.30896 23.7358 7.29588 23.7259 6.87383C23.7226 6.65463 23.716 6.43869 23.7127 6.21949C23.7061 5.79744 23.0441 5.81053 23.0508 6.23258Z" fill="#46A358"/>
    <path d="M22.5808 10.1681C23.0077 10.1583 22.9945 9.50397 22.5676 9.51378C22.144 9.52032 22.1572 10.1747 22.5808 10.1681Z" fill="#46A358"/>
    <path d="M20.605 10.5347C20.5753 10.8978 20.5455 11.2643 20.519 11.6274C20.5058 11.8041 20.6911 11.9513 20.8566 11.9481C21.0518 11.9448 21.1677 11.791 21.1809 11.6143C21.2107 11.2512 21.2405 10.8848 21.2669 10.5216C21.2802 10.3449 21.0948 10.1977 20.9294 10.201C20.7341 10.2043 20.6183 10.358 20.605 10.5347Z" fill="#46A358"/>
    <path d="M22.1704 11.5946C22.1804 11.9938 22.187 12.3929 22.1969 12.7953C22.2068 13.2174 22.8687 13.2043 22.8588 12.7823C22.8489 12.3831 22.8423 11.984 22.8323 11.5816C22.8224 11.1595 22.1605 11.1726 22.1704 11.5946Z" fill="#46A358"/>
    <path d="M23.342 9.27835C23.385 9.60551 23.4281 9.93268 23.4711 10.2566C23.4942 10.4332 23.6167 10.5805 23.8087 10.5772C23.9708 10.5739 24.1562 10.4202 24.133 10.2435C24.09 9.91632 24.0469 9.58915 24.0039 9.26526C23.9807 9.08859 23.8583 8.94136 23.6663 8.94463C23.5009 8.94791 23.3155 9.10167 23.342 9.27835Z" fill="#46A358"/>
    <path d="M23.438 14.1859C23.4413 14.3692 23.4446 14.5491 23.4479 14.7323C23.4578 15.1544 24.1197 15.1413 24.1098 14.7192C24.1065 14.536 24.1032 14.3561 24.0999 14.1729C24.09 13.7508 23.4281 13.7639 23.438 14.1859Z" fill="#46A358"/>
    <path d="M22.005 8.86951C21.9719 9.1934 22.0447 9.49767 22.1804 9.79212C22.2532 9.95244 22.4981 9.98515 22.6371 9.90009C22.8059 9.79867 22.8191 9.61218 22.7463 9.4486C22.6603 9.26211 22.647 9.05599 22.6669 8.85315C22.6834 8.67648 22.4915 8.52925 22.3293 8.53252C22.134 8.53907 22.0215 8.69284 22.005 8.86951Z" fill="#46A358"/>
    <path d="M19.6949 14.0648C19.6287 14.4313 19.5625 14.7944 19.4963 15.1608C19.4202 15.5731 20.0623 15.7367 20.1384 15.3212C20.2046 14.9547 20.2708 14.5916 20.337 14.2251C20.4098 13.8129 19.771 13.6493 19.6949 14.0648Z" fill="#46A358"/>
    <path d="M21.5185 16.3224C21.4887 16.5776 21.4556 16.8327 21.4258 17.0879C21.4059 17.2646 21.4754 17.438 21.6641 17.4871C21.8196 17.5263 22.0447 17.4282 22.0678 17.2515C22.0976 16.9963 22.1307 16.7411 22.1605 16.486C22.1804 16.3093 22.1109 16.1359 21.9222 16.0868C21.7667 16.0443 21.5416 16.1457 21.5185 16.3224Z" fill="#46A358"/>
    <path d="M20.936 20.9779C20.9889 21.256 20.9558 21.5275 20.8665 21.7926C20.7308 22.1917 21.3728 22.352 21.5085 21.9529C21.6376 21.5734 21.6475 21.184 21.5714 20.7914C21.5383 20.618 21.3199 20.5231 21.161 20.5722C20.9724 20.6278 20.8996 20.8045 20.936 20.9779Z" fill="#46A358"/>
    <path d="M18.9139 18.3377C18.8841 18.5929 18.851 18.848 18.8212 19.1032C18.8014 19.2799 18.8709 19.4533 19.0595 19.5024C19.215 19.5416 19.4401 19.4435 19.4633 19.2668C19.493 19.0116 19.5261 18.7564 19.5559 18.5012C19.5758 18.3246 19.5063 18.1512 19.3176 18.1021C19.1588 18.0628 18.9337 18.161 18.9139 18.3377Z" fill="#46A358"/>
    <path d="M23.4214 18.8579C23.5009 19.2211 23.577 19.5842 23.6564 19.9441C23.7458 20.3564 24.3812 20.1666 24.2918 19.7576C24.2124 19.3945 24.1363 19.0313 24.0569 18.6714C23.9675 18.2592 23.3354 18.4457 23.4214 18.8579Z" fill="#46A358"/>
    <path d="M23.855 23.6674C23.8616 24.0305 23.8715 24.3937 23.8781 24.7569C23.8881 25.1789 24.55 25.1658 24.5401 24.7438C24.5334 24.3806 24.5235 24.0175 24.5169 23.6543C24.5103 23.2323 23.8484 23.2453 23.855 23.6674Z" fill="#46A358"/>
    <path d="M23.0739 28.4636C23.117 28.7187 23.1567 28.9707 23.1997 29.2259C23.2295 29.3993 23.4545 29.4909 23.6101 29.4451C23.7987 29.3894 23.8616 29.2128 23.8318 29.0394C23.7888 28.7842 23.7491 28.5323 23.7061 28.2771C23.6763 28.1037 23.4512 28.0121 23.2957 28.0579C23.107 28.1102 23.0441 28.2869 23.0739 28.4636Z" fill="#46A358"/>
    <path d="M20.3734 26.0295C20.3767 26.2487 20.3833 26.4646 20.3866 26.6838C20.3965 27.1058 21.0584 27.0928 21.0485 26.6707C21.0452 26.4515 21.0386 26.2356 21.0353 26.0164C21.0287 25.5943 20.3668 25.6074 20.3734 26.0295Z" fill="#46A358"/>
    <path d="M18.5498 23.2289C18.573 23.5004 18.5465 23.7556 18.4671 24.0174C18.3446 24.423 18.9867 24.5801 19.1091 24.1777C19.2051 23.8669 19.2382 23.5397 19.2117 23.2158C19.1753 22.8003 18.5134 22.8101 18.5498 23.2289Z" fill="#46A358"/>
    <path d="M19.3805 30.7603C19.3474 31.0155 19.3176 31.2706 19.2845 31.5258C19.2614 31.7025 19.3342 31.8759 19.5228 31.925C19.6784 31.9642 19.9034 31.8661 19.9266 31.6894C19.9597 31.4342 19.9895 31.179 20.0226 30.9238C20.0457 30.7472 19.9729 30.5738 19.7843 30.5247C19.6254 30.4854 19.4037 30.5836 19.3805 30.7603Z" fill="#46A358"/>
    <path d="M22.7562 34.4672C22.7992 34.6831 22.839 34.9023 22.882 35.1182C22.9151 35.2916 23.1335 35.3865 23.2924 35.3374C23.4777 35.2818 23.5472 35.1051 23.5141 34.9317C23.4711 34.7158 23.4314 34.4966 23.3883 34.2807C23.3552 34.1073 23.1368 34.0124 22.978 34.0615C22.7926 34.1171 22.7231 34.2938 22.7562 34.4672Z" fill="#46A358"/>
    <path d="M20.9658 38.2131C21.0452 38.5763 21.1279 38.9362 21.2074 39.2993C21.3 39.7116 21.9322 39.5218 21.8428 39.1129C21.7634 38.7497 21.6806 38.3898 21.6012 38.0267C21.5085 37.6144 20.8731 37.8009 20.9658 38.2131Z" fill="#46A358"/>
    <path d="M24.6592 40.5818C24.5897 40.837 24.5235 41.0922 24.454 41.3507C24.3448 41.7596 24.9868 41.9199 25.0961 41.511C25.1656 41.2558 25.2317 41.0006 25.3012 40.7421C25.4105 40.3332 24.7684 40.1729 24.6592 40.5818Z" fill="#46A358"/>
    <path d="M24.1661 12.1869C24.2091 12.4421 24.2521 12.6941 24.2952 12.9492C24.3249 13.1226 24.55 13.2143 24.7055 13.1684C24.8942 13.1128 24.9571 12.9362 24.9273 12.7628C24.8842 12.5076 24.8412 12.2556 24.7982 12.0005C24.7684 11.8271 24.5434 11.7355 24.3878 11.7813C24.2025 11.8369 24.1363 12.0135 24.1661 12.1869Z" fill="#46A358"/>
    <path d="M24.2455 16.679C24.2918 17.0061 24.3382 17.33 24.3845 17.6572C24.411 17.8306 24.5268 17.9811 24.7221 17.9778C24.8842 17.9746 25.0696 17.8208 25.0464 17.6441C25.0001 17.317 24.9537 16.9931 24.9074 16.6659C24.8809 16.4925 24.7651 16.342 24.5698 16.3453C24.4077 16.3485 24.219 16.5056 24.2455 16.679Z" fill="#46A358"/>
    <path d="M29.2098 20.3107C29.1204 20.8243 29.0278 21.3347 28.9384 21.8484C28.8656 22.2606 29.5076 22.4242 29.5804 22.0087C29.6698 21.495 29.7625 20.9846 29.8518 20.471C29.9246 20.0588 29.2826 19.8952 29.2098 20.3107Z" fill="#46A358"/>
    <path d="M30.4972 19.3881C30.5038 19.6433 30.5071 19.8985 30.5137 20.1504C30.5237 20.5724 31.1856 20.5594 31.1756 20.1373C31.169 19.8821 31.1657 19.6269 31.1591 19.375C31.1492 18.953 30.4906 18.966 30.4972 19.3881Z" fill="#46A358"/>
    <path d="M30.1364 22.8854C30.0736 23.4318 30.014 23.9781 29.9511 24.5245C29.9048 24.9433 30.5667 24.9237 30.613 24.5114C30.6759 23.9651 30.7355 23.4187 30.7983 22.8723C30.8447 22.4568 30.1828 22.4732 30.1364 22.8854Z" fill="#46A358"/>
    <path d="M28.4221 23.8439C28.2798 24.1383 28.1408 24.4328 27.9985 24.724C27.8165 25.1035 28.3956 25.4241 28.5777 25.0413C28.72 24.7469 28.859 24.4524 29.0013 24.1613C29.1833 23.7817 28.6041 23.4611 28.4221 23.8439Z" fill="#46A358"/>
    <path d="M27.426 22.0937C27.3399 22.3162 27.2572 22.5354 27.1711 22.7579C27.1082 22.9247 27.2505 23.1145 27.4094 23.157C27.598 23.2061 27.747 23.085 27.8132 22.9215C27.8992 22.699 27.9819 22.4798 28.068 22.2573C28.1309 22.0904 27.9886 21.9007 27.8297 21.8582C27.6411 21.8091 27.4921 21.9269 27.426 22.0937Z" fill="#46A358"/>
    <path d="M29.3157 26.3925C29.3024 26.6837 29.2925 26.9749 29.2793 27.266C29.2627 27.6881 29.9246 27.6717 29.9412 27.253C29.9544 26.9618 29.9643 26.6706 29.9776 26.3794C29.9941 25.9574 29.3322 25.9737 29.3157 26.3925Z" fill="#46A358"/>
    <path d="M30.6726 28.1101C30.6593 28.3817 30.6461 28.6565 30.6329 28.9281C30.6229 29.1047 30.8017 29.2519 30.9704 29.2487C31.1591 29.2454 31.2848 29.0916 31.2948 28.915C31.308 28.6434 31.3213 28.3686 31.3345 28.097C31.3444 27.9204 31.1657 27.7731 30.9969 27.7764C30.8083 27.7797 30.6825 27.9335 30.6726 28.1101Z" fill="#46A358"/>
    <path d="M30.1497 31.035C30.1199 31.2706 30.0868 31.5094 30.057 31.745C30.0339 31.9184 30.11 32.095 30.2953 32.1441C30.4542 32.1834 30.6759 32.0852 30.6991 31.9085C30.7288 31.673 30.7619 31.4342 30.7917 31.1986C30.8149 31.0252 30.7388 30.8485 30.5534 30.7995C30.3946 30.7569 30.1728 30.8583 30.1497 31.035Z" fill="#46A358"/>
    <path d="M27.6808 29.0133C27.6477 29.2129 27.6146 29.4157 27.5815 29.6153C27.5517 29.7887 27.6378 29.9653 27.8198 30.0144C27.9819 30.0537 28.1938 29.9523 28.2235 29.7789C28.2566 29.5793 28.2897 29.3764 28.3228 29.1769C28.3526 29.0035 28.2666 28.8268 28.0845 28.7777C27.9224 28.7352 27.7106 28.8366 27.6808 29.0133Z" fill="#46A358"/>
    <path d="M28.1574 34.2152C28.1607 34.3592 28.164 34.5064 28.1673 34.6504C28.1772 35.0724 28.8391 35.0593 28.8292 34.6373C28.8259 34.4933 28.8226 34.3461 28.8193 34.2022C28.8093 33.7801 28.1474 33.7932 28.1574 34.2152Z" fill="#46A358"/>
    <path d="M30.2953 36.1357C30.2986 36.2796 30.3019 36.4268 30.3052 36.5708C30.3152 36.9928 30.9771 36.9797 30.9671 36.5577C30.9638 36.4137 30.9605 36.2665 30.9572 36.1226C30.9473 35.7005 30.2854 35.7136 30.2953 36.1357Z" fill="#46A358"/>
    <path d="M28.389 40.101C28.4155 40.3562 28.389 40.5918 28.3063 40.8339C28.25 41.0007 28.3824 41.1905 28.5446 41.233C28.7299 41.2788 28.8888 41.1643 28.9483 40.9974C29.0476 40.7063 29.084 40.3955 29.0509 40.0912C29.0311 39.9145 28.902 39.7673 28.7134 39.7706C28.5446 39.7706 28.3692 39.9243 28.389 40.101Z" fill="#46A358"/>
    <path d="M29.2065 18.6517C29.1204 18.8185 29.0311 18.9854 28.945 19.149C28.7498 19.5219 29.3256 19.8425 29.5242 19.4663C29.6102 19.2994 29.6996 19.1326 29.7856 18.969C29.9809 18.596 29.405 18.2754 29.2065 18.6517Z" fill="#46A358"/>
    <path d="M12.04 12.4323C12.0996 12.7758 12.1625 13.1226 12.222 13.4662C12.2518 13.6396 12.4769 13.7312 12.6324 13.6854C12.8211 13.6297 12.8873 13.4531 12.8542 13.2797C12.7946 12.9361 12.7317 12.5893 12.6721 12.2458C12.6423 12.0724 12.4173 11.9808 12.2618 12.0266C12.0731 12.0822 12.0069 12.2589 12.04 12.4323Z" fill="#46A358"/>
    <path d="M13.0262 14.595C13.1785 14.9549 13.334 15.318 13.4863 15.6779C13.5558 15.8415 13.7146 15.9527 13.8967 15.8971C14.0522 15.8513 14.1879 15.655 14.1184 15.4914C13.9662 15.1315 13.8106 14.7684 13.6584 14.4085C13.5889 14.2449 13.43 14.1337 13.248 14.1893C13.0924 14.2351 12.9567 14.4314 13.0262 14.595Z" fill="#46A358"/>
    <path d="M12.1228 15.8021C12.0466 16.306 12.0533 16.7869 12.1426 17.2842C12.2154 17.6964 12.8475 17.51 12.778 17.0977C12.7118 16.7248 12.7118 16.3387 12.7681 15.9624C12.8244 15.5502 12.1823 15.3866 12.1228 15.8021Z" fill="#46A358"/>
    <path d="M13.3804 17.6931C13.4929 18.0006 13.6021 18.3114 13.7146 18.619C13.8569 19.0149 14.4924 18.8316 14.3501 18.4325C14.2375 18.125 14.1283 17.8141 14.0158 17.5066C13.8735 17.1107 13.2381 17.294 13.3804 17.6931Z" fill="#46A358"/>
    <path d="M11.8414 19.0019C11.8481 19.365 11.858 19.7282 11.8646 20.0913C11.8745 20.5134 12.5364 20.5003 12.5265 20.0783C12.5199 19.7151 12.51 19.3519 12.5033 18.9888C12.4967 18.5667 11.8348 18.5798 11.8414 19.0019Z" fill="#46A358"/>
    <path d="M13.0825 20.2321C13.0891 20.5593 13.0958 20.8864 13.1024 21.2136C13.1123 21.6356 13.7742 21.6226 13.7643 21.2005C13.7577 20.8733 13.751 20.5462 13.7444 20.219C13.7345 19.797 13.0726 19.81 13.0825 20.2321Z" fill="#46A358"/>
    <path d="M14.9325 20.8799C15.0649 21.2594 15.2006 21.6389 15.333 22.0184C15.472 22.4143 16.1074 22.2311 15.9684 21.8319C15.836 21.4524 15.7003 21.0729 15.568 20.6934C15.429 20.2975 14.7935 20.4807 14.9325 20.8799Z" fill="#46A358"/>
    <path d="M15.6573 24.1383C15.697 24.3379 15.7401 24.5375 15.7798 24.737C15.8162 24.9104 16.0313 25.0053 16.1901 24.9562C16.3755 24.9006 16.4483 24.7239 16.4119 24.5505C16.3722 24.351 16.3291 24.1514 16.2894 23.9518C16.253 23.7784 16.0379 23.6835 15.8791 23.7326C15.697 23.785 15.6209 23.9649 15.6573 24.1383Z" fill="#46A358"/>
    <path d="M13.8404 24.1743C13.9496 24.4818 14.029 24.7959 14.0654 25.1198C14.0853 25.2965 14.2144 25.4437 14.403 25.4404C14.5685 25.4372 14.7472 25.2834 14.7273 25.1067C14.6843 24.7239 14.6049 24.351 14.4758 23.9878C14.3335 23.5919 13.6981 23.7752 13.8404 24.1743Z" fill="#46A358"/>
    <path d="M12.1426 22.8691C12.1492 23.1242 12.1525 23.3794 12.1592 23.6314C12.1691 24.0534 12.831 24.0403 12.8211 23.6183C12.8144 23.3631 12.8111 23.1079 12.8045 22.856C12.7946 22.4339 12.136 22.447 12.1426 22.8691Z" fill="#46A358"/>
    <path d="M12.9402 26.7787C12.9667 27.1059 13.0296 27.4265 13.1388 27.734C13.2811 28.1299 13.9165 27.9467 13.7742 27.5475C13.6815 27.2924 13.622 27.0339 13.6021 26.7656C13.5723 26.3468 12.9104 26.3599 12.9402 26.7787Z" fill="#46A358"/>
    <path d="M14.3898 29.563C14.4493 29.7626 14.5089 29.9622 14.5685 30.1585C14.6876 30.5609 15.3231 30.3777 15.2039 29.972C15.1443 29.7724 15.0848 29.5761 15.0252 29.3765C14.9061 28.9741 14.2706 29.1573 14.3898 29.563Z" fill="#46A358"/>
    <path d="M15.1675 27.0371C15.2072 27.181 15.2469 27.325 15.2866 27.4722C15.3992 27.8779 16.0346 27.6914 15.9221 27.2857C15.8824 27.1418 15.8426 26.9978 15.8029 26.8506C15.6904 26.4449 15.055 26.6314 15.1675 27.0371Z" fill="#46A358"/>
    <path d="M13.291 32.4779C13.3737 32.8018 13.4532 33.129 13.5359 33.4529C13.6385 33.8618 14.2739 33.6753 14.1713 33.2664C14.0886 32.9425 14.0092 32.6153 13.9264 32.2914C13.8238 31.8824 13.1884 32.0689 13.291 32.4779Z" fill="#46A358"/>
    <path d="M14.9358 37.2415C14.9954 37.3854 15.0517 37.5294 15.1112 37.6733C15.1774 37.8369 15.3396 37.9481 15.5216 37.8925C15.6805 37.8467 15.8096 37.6504 15.7434 37.4868C15.6838 37.3429 15.6275 37.1989 15.568 37.055C15.5018 36.8914 15.3396 36.7802 15.1576 36.8358C14.9987 36.8816 14.8697 37.0779 14.9358 37.2415Z" fill="#46A358"/>
    <path d="M36.4808 23.6836C36.3054 24.0336 36.1267 24.3804 35.9513 24.7305C35.7593 25.1068 36.3385 25.4274 36.5304 25.0479C36.7058 24.6978 36.8845 24.351 37.06 24.0009C37.2519 23.6247 36.6727 23.3073 36.4808 23.6836Z" fill="#46A358"/>
    <path d="M37.4075 24.5047C37.3247 24.8352 37.2387 25.1623 37.1559 25.4928C37.05 25.9017 37.6921 26.0621 37.798 25.6531C37.8807 25.3227 37.9668 24.9955 38.0495 24.6651C38.1521 24.2594 37.51 24.0991 37.4075 24.5047Z" fill="#46A358"/>
    <path d="M36.5933 27.6325C36.5106 27.9073 36.4278 28.1821 36.3418 28.457C36.2193 28.8627 36.8614 29.0197 36.9838 28.6173C37.0666 28.3425 37.1493 28.0676 37.2354 27.7928C37.3545 27.3904 36.7125 27.2301 36.5933 27.6325Z" fill="#46A358"/>
    <path d="M36.0373 26.3076C35.9678 26.4352 35.895 26.566 35.8255 26.6936C35.6203 27.0633 36.1995 27.384 36.4047 27.011C36.4742 26.8834 36.547 26.7525 36.6165 26.6249C36.8217 26.2585 36.2425 25.9379 36.0373 26.3076Z" fill="#46A358"/>
    <path d="M37.6722 26.4646C37.6424 26.7198 37.6126 26.975 37.5829 27.2302C37.563 27.4069 37.6325 27.5803 37.8211 27.6293C37.9767 27.6686 38.2017 27.5704 38.2249 27.3938C38.2547 27.1386 38.2845 26.8834 38.3143 26.6282C38.3341 26.4515 38.2646 26.2781 38.076 26.2291C37.9171 26.1898 37.6921 26.2879 37.6722 26.4646Z" fill="#46A358"/>
    <path d="M34.5547 28.1625C34.4885 28.3719 34.3892 28.5616 34.27 28.7448C34.0384 29.0982 34.6175 29.4155 34.8492 29.0622C35.0014 28.8332 35.114 28.5845 35.1967 28.3228C35.2497 28.1559 35.1239 27.9662 34.9584 27.9236C34.7731 27.8811 34.6076 27.9923 34.5547 28.1625Z" fill="#46A358"/>
    <path d="M34.5348 30.9761C34.3925 31.2084 34.323 31.4734 34.3362 31.745C34.3561 32.1638 35.018 32.1539 34.9981 31.7319C34.9915 31.5683 35.0246 31.4342 35.114 31.2968C35.3357 30.9336 34.7565 30.6162 34.5348 30.9761Z" fill="#46A358"/>
    <path d="M36.259 30.2565C36.1929 30.4757 36.1267 30.6982 36.0638 30.9174C35.9446 31.3231 36.5867 31.4801 36.7058 31.0777C36.772 30.8585 36.8382 30.636 36.9011 30.4168C37.0202 30.0111 36.3782 29.8541 36.259 30.2565Z" fill="#46A358"/>
    <path d="M35.713 33.4824C35.6435 33.7212 35.5773 33.9568 35.5078 34.1956C35.392 34.6013 36.034 34.7616 36.1498 34.3559C36.2193 34.1171 36.2855 33.8815 36.355 33.6427C36.4709 33.2403 35.8288 33.0799 35.713 33.4824Z" fill="#46A358"/>
    <path d="M37.8112 28.8364C37.7947 28.9837 37.7814 29.1276 37.7649 29.2749C37.745 29.4515 37.9403 29.5987 38.1024 29.5955C38.301 29.5922 38.4069 29.4384 38.4268 29.2618C38.4433 29.1145 38.4566 28.9706 38.4731 28.8234C38.493 28.6467 38.2977 28.4995 38.1355 28.5027C37.937 28.5093 37.8311 28.6598 37.8112 28.8364Z" fill="#46A358"/>
    <path d="M33.6545 35.3799C33.6214 35.4911 33.585 35.5991 33.5519 35.7103C33.4261 36.1127 34.0681 36.2731 34.1939 35.8706C34.227 35.7594 34.2634 35.6514 34.2965 35.5402C34.4223 35.1378 33.7802 34.9807 33.6545 35.3799Z" fill="#46A358"/>
    <path d="M33.1216 38.7202C33.0521 38.9034 32.9793 39.0866 32.9098 39.2698C32.8469 39.4334 32.9893 39.6264 33.1481 39.669C33.3401 39.718 33.4857 39.597 33.5519 39.4334C33.6214 39.2502 33.6942 39.067 33.7637 38.8838C33.8265 38.7202 33.6842 38.5272 33.5254 38.4846C33.3334 38.4355 33.1878 38.5533 33.1216 38.7202Z" fill="#46A358"/>
    <path d="M35.7262 37.3888C35.7295 37.4968 35.7295 37.608 35.7328 37.716C35.7428 38.138 36.4047 38.1249 36.3947 37.7029C36.3914 37.5949 36.3914 37.4837 36.3881 37.3757C36.3782 36.9537 35.7163 36.9668 35.7262 37.3888Z" fill="#46A358"/>
    <path d="M34.4918 41.7237C34.4752 41.8709 34.462 42.0148 34.4454 42.1621C34.4256 42.3387 34.6208 42.486 34.783 42.4827C34.9816 42.4794 35.0875 42.3257 35.1073 42.149C35.1239 42.0018 35.1371 41.8578 35.1537 41.7106C35.1735 41.5339 34.9783 41.3867 34.8161 41.3899C34.6208 41.3932 34.5116 41.547 34.4918 41.7237Z" fill="#46A358"/>
    <path d="M4.25935 28.0806C4.31561 28.2606 4.37518 28.4438 4.43144 28.6237C4.5572 29.0261 5.19263 28.8397 5.06687 28.4373C5.0106 28.2573 4.95103 28.0741 4.89477 27.8942C4.7657 27.4917 4.13027 27.6782 4.25935 28.0806Z" fill="#46A358"/>
    <path d="M4.94111 27.3381C5.16284 27.6097 5.38789 27.8812 5.60963 28.1495C5.72215 28.2869 5.96375 28.2574 6.07627 28.1397C6.21196 27.999 6.17886 27.8158 6.06634 27.6784C5.8446 27.4068 5.61956 27.1353 5.39782 26.867C5.28529 26.7296 5.0437 26.759 4.93118 26.8768C4.79549 27.0142 4.82858 27.2007 4.94111 27.3381Z" fill="#46A358"/>
    <path d="M6.21196 29.6415C6.40391 29.9098 6.59586 30.1781 6.78451 30.4431C7.02941 30.7866 7.59534 30.4464 7.35043 30.1029C7.15848 29.8346 6.96653 29.5663 6.77789 29.3013C6.52967 28.9578 5.96375 29.2947 6.21196 29.6415Z" fill="#46A358"/>
    <path d="M5.39782 30.4233C5.55006 30.6752 5.7023 30.9271 5.85453 31.1791C6.07296 31.5389 6.63889 31.1987 6.42046 30.8388C6.26822 30.5869 6.11599 30.335 5.96375 30.083C5.74201 29.7199 5.17939 30.0601 5.39782 30.4233Z" fill="#46A358"/>
    <path d="M6.88048 33.1224C7.07243 33.4626 7.2677 33.8029 7.45965 34.1431C7.66815 34.5096 8.23407 34.1693 8.02557 33.8029C7.83362 33.4626 7.63836 33.1224 7.44641 32.7821C7.2346 32.4157 6.67198 32.756 6.88048 33.1224Z" fill="#46A358"/>
    <path d="M7.46627 32.131C7.59865 32.3273 7.73103 32.5269 7.86341 32.7232C8.09838 33.0732 8.66431 32.733 8.42933 32.3829C8.29695 32.1866 8.16457 31.987 8.03219 31.7907C7.79391 31.4407 7.22798 31.7777 7.46627 32.131Z" fill="#46A358"/>
    <path d="M7.77405 30.757C7.88327 30.9893 8.0686 31.1693 8.29034 31.3001C8.661 31.5128 8.98202 30.9402 8.61136 30.7276C8.47898 30.6523 8.39955 30.5509 8.33667 30.4168C8.26055 30.2565 8.02227 30.2237 7.87996 30.3088C7.71779 30.4102 7.69793 30.5967 7.77405 30.757Z" fill="#46A358"/>
    <path d="M5.29191 32.4745C5.33494 32.6544 5.37465 32.8344 5.41768 33.0176C5.45739 33.191 5.66589 33.2859 5.82806 33.2368C6.01008 33.1844 6.08951 33.0012 6.04979 32.8311C6.00677 32.6512 5.96706 32.4712 5.92403 32.288C5.88432 32.1146 5.67582 32.0197 5.51365 32.0688C5.33163 32.1211 5.2522 32.3044 5.29191 32.4745Z" fill="#46A358"/>
    <path d="M7.38022 35.8936C7.53246 36.2011 7.6847 36.5087 7.83362 36.8129C7.91305 36.9733 8.14803 37.006 8.29034 36.9209C8.45581 36.8228 8.47898 36.6297 8.39955 36.4694C8.24731 36.1619 8.09508 35.8543 7.94615 35.5501C7.86672 35.3898 7.63174 35.357 7.48943 35.4421C7.32396 35.5435 7.30079 35.7366 7.38022 35.8936Z" fill="#46A358"/>
    <path d="M9.85243 34.9679C9.96826 35.1838 10.0808 35.3997 10.1966 35.6156C10.3952 35.9886 10.9578 35.6451 10.7625 35.2754C10.6467 35.0595 10.5342 34.8435 10.4184 34.6276C10.2165 34.2546 9.65386 34.5949 9.85243 34.9679Z" fill="#46A358"/>
    <path d="M10.607 39.6463C10.703 39.8263 10.7989 40.0062 10.8982 40.1829C11.1001 40.5558 11.6627 40.2123 11.4642 39.8426C11.3682 39.6627 11.2722 39.4827 11.1729 39.3061C10.971 38.9331 10.4051 39.2734 10.607 39.6463Z" fill="#46A358"/>
    <path d="M11.7819 37.9875C11.8944 38.1675 12.0102 38.3474 12.1228 38.5273C12.3478 38.884 12.9137 38.5437 12.6887 38.1871C12.5762 38.0071 12.4603 37.8272 12.3478 37.6473C12.1194 37.2907 11.5535 37.6309 11.7819 37.9875Z" fill="#46A358"/>
    <path d="M13.0991 43.0323C13.1917 43.1959 13.2877 43.3562 13.3804 43.5198C13.5922 43.8862 14.1548 43.5427 13.9463 43.1795C13.8536 43.0159 13.7577 42.8556 13.665 42.692C13.4532 42.3256 12.8873 42.6659 13.0991 43.0323Z" fill="#46A358"/>
    <path d="M2.42587 41.0104C2.64761 41.1151 2.87266 41.2165 3.0944 41.3212C3.4783 41.5012 3.80263 40.9286 3.41542 40.7487C3.19368 40.644 2.96863 40.5426 2.7469 40.4379C2.3663 40.2612 2.04197 40.8305 2.42587 41.0104Z" fill="#46A358"/>
    <path d="M4.53404 41.9624C4.77894 42.1358 5.02384 42.3124 5.26544 42.4858C5.41106 42.5905 5.6361 42.5022 5.71553 42.3582C5.81151 42.1881 5.73208 42.018 5.58646 41.9133C5.34156 41.7399 5.09665 41.5632 4.85506 41.3898C4.70944 41.2851 4.48439 41.3735 4.40496 41.5174C4.3123 41.6875 4.39173 41.8577 4.53404 41.9624Z" fill="#46A358"/>
    <path d="M4.2097 40.9613C4.37849 40.9973 4.53404 41.053 4.68627 41.138C5.06025 41.3409 5.38127 40.7683 5.0073 40.5655C4.80873 40.4575 4.59361 40.3757 4.37187 40.3266C3.95818 40.235 3.7927 40.8697 4.2097 40.9613Z" fill="#46A358"/>
    <path d="M6.14908 42.3584C6.29801 42.4631 6.44693 42.571 6.59586 42.6757C6.74148 42.7772 6.96653 42.6921 7.04596 42.5481C7.14193 42.378 7.0625 42.2046 6.91689 42.1032C6.76796 41.9985 6.61903 41.8905 6.4701 41.7858C6.32448 41.6844 6.09944 41.7695 6.02001 41.9134C5.92734 42.0836 6.00346 42.2537 6.14908 42.3584Z" fill="#46A358"/>
    <path d="M6.10275 43.3366C6.17886 43.4446 6.25498 43.5525 6.3311 43.6605C6.5727 44.004 7.13862 43.667 6.89703 43.3202C6.82091 43.2123 6.74479 43.1043 6.66867 42.9963C6.42708 42.6495 5.85784 42.9898 6.10275 43.3366Z" fill="#46A358"/>
    <path d="M7.60196 43.8634C7.75088 43.9877 7.89981 44.1121 8.05205 44.2364C8.18774 44.3509 8.38962 44.3607 8.51869 44.2266C8.63784 44.1055 8.64776 43.8765 8.50876 43.7653C8.35984 43.6409 8.21091 43.5166 8.05867 43.3923C7.92298 43.2778 7.7211 43.268 7.59203 43.4021C7.47288 43.5199 7.46296 43.7489 7.60196 43.8634Z" fill="#46A358"/>
    <path d="M41.7628 34.2251C41.4087 34.1597 41.0578 34.1662 40.707 34.2546C40.2933 34.3593 40.482 34.9874 40.8957 34.8827C41.1273 34.8238 41.3623 34.814 41.5973 34.8598C42.0176 34.9384 42.1798 34.3037 41.7628 34.2251Z" fill="#46A358"/>
    <path d="M39.4792 34.9021C39.3534 34.997 39.2244 35.0886 39.0986 35.1835C38.9563 35.2882 38.8901 35.4714 38.9894 35.635C39.0754 35.7756 39.3005 35.8509 39.4461 35.7429C39.5719 35.648 39.7009 35.5564 39.8267 35.4616C39.969 35.3569 40.0352 35.1737 39.9359 35.0101C39.8499 34.8694 39.6248 34.7974 39.4792 34.9021Z" fill="#46A358"/>
    <path d="M39.5851 34.5817C40.012 34.5719 39.9988 33.9175 39.5719 33.9274C39.1449 33.9372 39.1582 34.5915 39.5851 34.5817Z" fill="#46A358"/>
  </g>
  <defs>
    <clipPath id="clip0_5_1761">
      <rect width="44" height="49" fill="white"/>
    </clipPath>
  </defs>
</svg>