<svg xmlns="http://www.w3.org/2000/svg" width="68" height="49" viewBox="0 0 68 49" fill="none">
  <g clip-path="url(#clip0_5_1646)">
    <path d="M7.24885 2.77657C24.0216 1.02379 40.9382 3.71439 57.6698 1.28998C58.4515 1.17531 58.1182 -0.00822137 57.3407 0.106446C40.7284 2.51037 23.9064 -0.192509 7.24885 1.54798C6.46719 1.62989 6.45896 2.85847 7.24885 2.77657Z" fill="#727272"/>
    <path d="M7.08428 1.57274C5.44692 2.08055 5.65261 4.21009 6.52066 5.34039C7.9441 7.19146 11.1407 7.23241 13.2265 7.03584C14.0122 6.96212 14.0163 5.73354 13.2265 5.80725C11.8771 5.93421 10.4783 5.92192 9.16596 5.53697C8.48303 5.3363 7.76309 5.05372 7.37226 4.41486C7.17067 4.08314 6.78396 2.95284 7.4134 2.76037C8.17037 2.52284 7.84537 1.33521 7.08428 1.57274Z" fill="#727272"/>
    <path d="M54.7818 1.67508C55.6498 1.62184 56.4891 1.47441 57.353 1.35974C58.723 1.17545 59.4265 1.54403 59.6651 2.97737C59.8626 4.1691 59.1097 4.5172 58.0483 4.85301C57.5464 5.01273 57.0198 5.11101 56.5014 5.2134C55.115 5.48368 53.7245 5.61883 52.3134 5.66797C51.5235 5.69664 51.5194 6.92522 52.3134 6.89656C54.7201 6.81055 61.4794 6.72046 61.2161 2.93233C61.1502 1.98632 60.2328 0.679923 59.373 0.254015C58.0894 -0.384849 56.09 0.364587 54.7777 0.446493C53.9919 0.495636 53.9878 1.72422 54.7818 1.67508Z" fill="#727272"/>
    <path d="M9.05488 6.77356C8.8862 9.37406 5.92414 10.8443 4.3526 12.6298C3.1184 14.0345 2.1475 15.6521 1.44401 17.3762C-0.0699346 21.0702 -0.357913 25.2105 0.411401 29.1051C1.99528 37.095 8.05929 43.6884 15.6331 46.5182C16.3778 46.7967 16.6987 45.6091 15.9623 45.3347C8.09632 42.3943 1.98294 35.0269 1.30002 26.5783C0.975017 22.5649 1.82661 18.3878 4.07696 15.0092C5.94471 12.208 10.0546 10.4143 10.2891 6.77356C10.3384 5.98726 9.10425 5.98726 9.05488 6.77356Z" fill="#727272"/>
    <path d="M55.8226 6.24953C55.8226 9.4807 58.18 11.5079 60.5784 13.3139C62.6395 14.8619 64.2357 16.369 65.2519 18.7975C66.1364 20.9065 66.626 23.1835 66.737 25.4646C67.1402 33.8558 62.2446 41.645 54.7201 45.3103C54.0084 45.6584 54.6296 46.7191 55.3413 46.371C62.331 42.9678 67.2595 36.0509 67.9177 28.3026C68.251 24.3834 67.5681 20.067 65.5687 16.6311C63.3677 12.8429 57.0568 11.1065 57.0527 6.24953C57.0568 5.45914 55.8226 5.45914 55.8226 6.24953Z" fill="#727272"/>
    <path d="M15.267 45.6172C14.4689 47.3823 15.9005 48.9058 17.6778 48.9877C19.6072 49.0819 21.6436 48.6355 23.5772 48.5536C25.8193 48.4553 28.0615 48.4512 30.3036 48.4839C38.6714 48.6109 47.0351 49.2457 55.3659 48.1154C55.6498 48.0785 55.7938 47.7673 55.8185 47.5215C55.8843 46.8335 55.8267 46.3257 55.6251 45.6787C55.3906 44.9251 54.2017 45.2487 54.4362 46.0063C54.646 46.5018 54.6954 47.0096 54.5843 47.5215C54.7365 47.325 54.8846 47.1284 55.0368 46.9277C48.5408 47.8082 41.9873 47.5871 35.4543 47.3823C32.2865 47.284 29.1146 47.1939 25.9469 47.2472C24.4987 47.2717 23.0506 47.3291 21.6025 47.4274C20.8126 47.4806 20.0268 47.5543 19.2411 47.6321C18.661 47.6895 15.4439 48.185 16.3284 46.2274C16.6534 45.519 15.592 44.8965 15.267 45.6172Z" fill="#727272"/>
    <path d="M7.08016 13.2237C2.05287 19.3789 1.66205 27.9708 6.17508 34.5233C6.39724 34.8468 6.93205 34.5396 6.7099 34.212C2.36142 27.9012 2.66174 19.6042 7.52035 13.6537C7.76308 13.3548 7.33111 12.9166 7.08016 13.2237Z" fill="#727272"/>
    <path d="M7.41339 36.8043C7.81656 37.3858 8.27733 37.9223 8.79158 38.4096C9.07956 38.6799 9.51564 38.2499 9.22766 37.9755C8.75044 37.5251 8.32258 37.0336 7.9441 36.4971C7.72194 36.1736 7.18712 36.4767 7.41339 36.8043Z" fill="#727272"/>
    <path d="M10.865 40.3387C11.2641 40.3387 11.2641 39.7244 10.865 39.7244C10.466 39.7244 10.466 40.3387 10.865 40.3387Z" fill="#727272"/>
    <path d="M54.6296 6.28223C54.3128 7.46167 54.0413 8.6493 54.5062 9.82874C54.9381 10.9222 55.8144 11.9091 56.559 12.8142C58.3445 14.9765 61.9977 17.1593 62.1705 20.1734C62.1911 20.5666 62.8082 20.5707 62.7876 20.1734C62.6601 17.9169 60.9898 16.4713 59.4512 15.0052C58.4597 14.0592 57.5258 13.0558 56.6701 11.9829C56.0942 11.258 55.4442 10.4922 55.1109 9.61988C54.7036 8.55921 54.9381 7.51491 55.222 6.45014C55.3248 6.06518 54.7283 5.90137 54.6296 6.28223Z" fill="#727272"/>
    <path d="M62.4379 21.5987C62.5243 22.385 62.6107 23.1713 62.6971 23.9576C62.7382 24.3467 63.3594 24.3508 63.3142 23.9576C63.2278 23.1713 63.1414 22.385 63.055 21.5987C63.0139 21.2097 62.3968 21.2056 62.4379 21.5987Z" fill="#727272"/>
    <path d="M62.4955 25.5752C62.5408 25.8046 62.5037 26.0216 62.4174 26.2346C62.3556 26.3902 62.4873 26.5704 62.6313 26.6113C62.8082 26.6605 62.9481 26.5499 63.0098 26.3984C63.1373 26.0789 63.1538 25.7472 63.0879 25.4114C63.018 25.0264 62.4215 25.1903 62.4955 25.5752Z" fill="#727272"/>
    <path d="M35.7423 21.0825C37.2151 18.2977 39.9879 16.4753 43.2091 16.635C47.0434 16.8234 51.0751 20.1447 48.3887 24.068C46.813 26.3654 43.9826 27.852 41.8968 29.6621C39.5806 31.6729 37.4619 33.8884 35.5078 36.2555C35.0059 36.8616 35.8739 37.7339 36.3799 37.1237C39.3585 33.5158 42.7278 30.4648 46.4304 27.6145C48.9029 25.7061 51.6387 22.8107 50.1371 19.4567C48.8947 16.6801 45.4636 15.3164 42.5715 15.3983C39.1651 15.4965 36.2442 17.495 34.6726 20.46C34.3065 21.1603 35.372 21.7828 35.7423 21.0825Z" fill="#727272"/>
    <path d="M35.4502 20.1285C32.8131 17.1758 29.5219 14.133 25.2516 14.3541C22.0839 14.518 19.3563 16.9096 18.8996 20.0589C18.336 23.8961 21.2158 27.2625 24.0216 29.4862C27.4691 32.2177 32.6691 33.1637 35.2486 36.8659C35.697 37.5129 36.7667 36.8986 36.3141 36.2475C34.7056 33.9378 32.3647 32.7501 29.8799 31.5543C26.7203 30.035 23.606 28.1552 21.5737 25.223C19.3069 21.9591 19.6813 16.9669 24.075 15.7711C28.3741 14.604 31.9944 18.1095 34.5739 20.9967C35.1046 21.5905 35.9768 20.7182 35.4502 20.1285Z" fill="#727272"/>
  </g>
  <defs>
    <clipPath id="clip0_5_1646">
      <rect width="68" height="49" fill="white"/>
    </clipPath>
  </defs>
</svg>