<svg xmlns="http://www.w3.org/2000/svg" width="83" height="40" viewBox="0 0 83 40" fill="none">
  <g clip-path="url(#clip0_5_1980)">
    <path d="M30.3859 2.61637C28.0446 8.63093 26.3971 14.9163 25.8568 21.3708C25.3966 26.8878 25.5367 32.8381 28.5582 37.6511C28.9051 38.2028 29.7589 37.6748 29.412 37.1197C26.3804 32.2931 26.3871 26.238 26.914 20.7243C27.501 14.5812 29.1285 8.59369 31.3564 2.86684C31.5898 2.26098 30.6193 2.01729 30.3859 2.61637Z" fill="#727272"/>
    <path d="M60.7884 1.68548C66.1145 5.74708 66.1212 13.1933 66.6948 19.3061C66.985 22.3895 67.3852 25.4831 67.5253 28.58C67.6553 31.4096 67.4219 34.4152 65.2141 36.4189C64.7338 36.8556 65.4575 37.5562 65.9344 37.1229C67.8788 35.3595 68.4791 32.8346 68.5458 30.2724C68.6425 26.6237 68.0322 22.9141 67.692 19.2891C67.095 12.9192 67.0217 5.18184 61.4788 0.954387C60.9718 0.565151 60.2748 1.29285 60.7884 1.68548Z" fill="#727272"/>
    <path d="M28.7583 37.8542C31.5832 38.8865 34.4713 39.1437 37.4429 39.3976C40.7313 39.6785 44.0497 40.1016 47.3547 39.9831C50.7098 39.8647 54.0749 39.3806 57.41 39.0151C60.3282 38.6936 63.223 38.2874 65.9444 37.1095C66.5281 36.8557 66.2512 35.8775 65.6576 36.1348C62.8361 37.3566 59.8412 37.7357 56.8163 38.0606C53.668 38.3991 50.4997 38.856 47.3347 38.9677C44.2331 39.0794 41.1248 38.6969 38.0365 38.4363C34.9582 38.1723 31.9367 37.9422 29.0051 36.8726C28.3982 36.6458 28.158 37.6342 28.7583 37.8542Z" fill="#727272"/>
    <path d="M30.626 3.18489C32.9539 4.14952 35.3318 5.00245 37.8431 5.30369C40.4545 5.61508 43.1158 5.1683 45.7439 5.236C47.2013 5.27323 48.512 5.47292 49.9828 5.25969C51.2501 5.07353 52.5174 4.8163 53.7481 4.46091C56.2994 3.72305 58.7707 2.69411 61.2753 1.80733C61.879 1.59409 61.5988 0.619309 60.9885 0.832543C56.0859 2.56888 51.4902 4.59629 46.1975 4.24767C43.9963 4.10213 41.8052 4.43044 39.6107 4.41014C36.6558 4.37967 33.8143 3.41843 31.1062 2.2981C30.5226 2.05441 30.029 2.93781 30.626 3.18489Z" fill="#727272"/>
    <path d="M0.663676 6.24129C6.2666 7.13485 11.4793 9.82566 15.3847 14.0193C19.1633 18.0775 21.2878 23.4252 25.4099 27.1924C25.8868 27.629 26.5839 26.8979 26.1036 26.4613C21.7347 22.4674 19.5502 16.6898 15.348 12.5368C11.4126 8.64779 6.3233 6.11945 0.910471 5.25636C0.276807 5.15482 0.0266764 6.13975 0.663676 6.24129Z" fill="#727272"/>
    <path d="M1.53747 4.42362C6.62346 3.24575 12.0296 3.94638 16.5987 6.54242C20.2439 8.61384 23.2355 11.8868 27.5877 12.3336C28.2281 12.3979 28.2014 11.3825 27.5677 11.3182C22.6852 10.8173 19.1633 6.35288 14.761 4.51839C10.4688 2.73128 5.76301 2.40635 1.25399 3.44883C0.623656 3.59437 0.910473 4.56916 1.53747 4.42362Z" fill="#727272"/>
    <path d="M0.723709 3.74329C0.340175 4.27806 0.0933795 4.90423 0.00666752 5.55747C-0.0300183 5.83163 0.0867093 6.09901 0.370191 6.17348C0.606981 6.23779 0.940489 6.07871 0.977174 5.80455C1.05388 5.22239 1.25732 4.7113 1.5975 4.23406C1.75758 4.01068 1.61751 3.66882 1.40406 3.54359C1.14726 3.39805 0.880457 3.52328 0.723709 3.74329Z" fill="#727272"/>
    <path d="M64.8105 4.67082C66.8783 0.653221 73.4483 0.135367 77.1569 1.97663C81.1757 3.97358 83.03 8.81027 81.3825 13.0411C79.9484 16.727 76.2631 18.531 73.2316 20.6566C71.9542 21.5535 70.5335 22.5622 69.6497 23.8856C68.7259 25.2699 68.8459 27.0299 67.9321 28.4109C67.5719 28.9558 68.4491 29.4432 68.8059 28.905C69.3829 28.0352 69.5496 27.1078 69.8064 26.1127C70.17 24.7216 70.897 23.828 71.9409 22.9176C73.7385 21.3505 75.8463 20.2166 77.7606 18.812C81.149 16.3242 83.5269 12.7906 82.8966 8.36349C82.3196 4.33235 79.1246 0.998457 75.1792 0.263984C71.2038 -0.477258 65.9644 0.236907 63.9334 4.18004C63.6366 4.75544 64.5103 5.2496 64.8105 4.67082Z" fill="#727272"/>
    <path d="M65.8244 7.22635C67.2084 4.42384 70.3601 3.69952 73.2216 3.92291C75.1292 4.07183 76.3065 4.83338 77.3037 6.49526C78.4076 8.32975 78.3542 9.88331 77.7306 11.8396C76.7501 14.9062 74.9825 16.3277 72.2644 17.7662C70.4835 18.7071 67.7654 19.9392 67.055 22.0207C66.8449 22.6401 67.8154 22.8838 68.0255 22.2712C68.6725 20.3758 71.8475 19.1438 73.4817 18.2671C74.8991 17.509 76.2265 16.673 77.1836 15.336C78.6977 13.224 79.9417 9.775 78.8445 7.27373C77.5038 4.21399 75.4527 2.85674 72.1777 2.88043C69.2628 2.90074 66.3246 3.95676 64.9539 6.73218C64.6638 7.31435 65.5376 7.80851 65.8244 7.22635Z" fill="#727272"/>
    <path d="M47.308 14.5709C44.3665 15.0143 41.8819 17.2346 41.585 20.3383C41.3016 23.2965 43.2693 27.1483 46.611 26.9215C49.6593 26.715 52.3673 23.7162 52.6475 20.7174C52.9576 17.4174 50.5197 14.5404 47.208 14.6859C46.5643 14.713 46.5843 15.7284 47.228 15.7013C50.1328 15.5727 52.1339 18.2669 51.5903 21.1033C51.15 23.3981 48.9689 25.7132 46.591 25.9095C43.6695 26.1498 42.1787 22.3962 42.6423 19.9593C43.0858 17.6238 45.0569 15.9315 47.328 15.5896C47.955 15.4915 47.945 14.4727 47.308 14.5709Z" fill="#727272"/>
    <path d="M47.8817 15.0143C47.7049 12.8616 51.0366 9.58865 52.7042 12.0798C53.2211 12.8515 53.7214 14.2223 53.5079 15.1733C53.2778 16.1921 52.294 16.9537 51.5402 17.5798C51.0433 17.9928 51.7704 18.6934 52.2606 18.2839C53.4479 17.2989 54.6685 16.1177 54.5552 14.4287C54.4618 13.0478 53.708 11.2268 52.5208 10.4687C49.9861 8.84741 46.6777 12.5604 46.8811 15.038C46.9345 15.6844 47.935 15.6675 47.8817 15.0143Z" fill="#727272"/>
    <path d="M52.5274 18.5106C53.7814 17.7559 57.0264 17.9555 56.6896 20.1353C56.3694 22.2135 53.718 22.2981 52.1472 22.3184C51.5035 22.3252 51.5236 23.3406 52.1672 23.3338C54.3717 23.3067 58.2271 22.6027 57.6768 19.438C57.2432 16.9537 53.7881 16.5678 52.0038 17.6442C51.4502 17.9792 51.9705 18.8457 52.5274 18.5106Z" fill="#727272"/>
    <path d="M51.5202 23.5198C53.2745 24.3051 55.2488 26.6371 53.5813 28.519C51.6303 30.719 48.8088 28.5427 48.0884 26.4205C47.8783 25.8045 46.9178 26.0888 47.1279 26.7116C48.0618 29.4532 51.4268 31.8224 54.0215 29.4972C56.5428 27.2396 54.5385 23.7669 52.0071 22.6297C51.4235 22.3691 50.9333 23.2558 51.5202 23.5198Z" fill="#727272"/>
    <path d="M46.6477 26.6746C46.7377 28.3805 46.2675 30.919 44.0063 30.6143C42.9791 30.4756 42.1887 29.538 42.2354 28.4752C42.2754 27.5208 42.9391 26.4072 43.3026 25.534C43.5494 24.9383 42.6789 24.4373 42.4288 25.0398C41.8985 26.3192 40.9781 27.8118 41.3182 29.2571C41.595 30.4282 42.5055 31.359 43.6728 31.5925C46.651 32.1916 47.7749 29.0743 47.6482 26.6509C47.6149 26.001 46.6143 26.018 46.6477 26.6746Z" fill="#727272"/>
    <path d="M43.1659 24.2715C41.3016 25.0534 38.4234 24.8537 37.773 22.481C37.4896 21.4385 37.8064 20.2065 38.7702 19.6413C39.7074 19.093 40.918 19.2385 41.9386 19.3637C42.5689 19.4416 42.8224 18.4567 42.1854 18.3788C40.7713 18.2062 39.1671 18.0539 37.9498 18.9745C36.9393 19.7394 36.5291 21.0798 36.7225 22.3152C37.2228 25.5069 40.9013 26.3091 43.4493 25.2429C44.043 24.9992 43.7628 24.021 43.1659 24.2715Z" fill="#727272"/>
    <path d="M42.5455 18.4936C40.8613 17.5798 39.9809 14.2222 41.4583 12.7702C43.3993 10.8646 45.7839 13.5656 46.9578 15.0277C47.3647 15.5321 48.0517 14.7976 47.6515 14.2966C46.1174 12.3877 42.799 9.46673 40.5312 12.2185C38.8636 14.2459 39.8608 18.189 42.0586 19.3838C42.6256 19.6918 43.1158 18.805 42.5455 18.4936Z" fill="#727272"/>
    <path d="M44.153 25.9569C43.3626 26.7286 42.849 28.8169 44.063 29.4499C45.5171 30.2114 46.1608 27.6221 46.3542 26.688C46.4409 26.2615 45.7939 26.0956 45.7072 26.5221C45.6205 26.9452 45.5104 27.3615 45.357 27.7677C45.2803 27.9674 45.1969 28.1671 45.0969 28.3566C44.9435 28.6511 44.8534 28.8406 44.4999 28.8C43.5461 28.6815 44.1997 26.8504 44.6366 26.4273C44.9435 26.1227 44.4632 25.6556 44.153 25.9569Z" fill="#727272"/>
    <path d="M48.452 26.0043C48.2819 26.9791 49.3691 27.744 50.1462 28.0926C50.9333 28.4446 52.0305 28.5631 52.7675 28.0114C53.4712 27.4834 53.3612 26.5255 53.0577 25.7944C52.6441 24.7993 51.7937 24.1292 50.8099 23.7772C50.403 23.6316 50.2429 24.2916 50.6464 24.4338C51.2401 24.647 51.7737 25.0058 52.1506 25.527C52.2806 25.7098 52.3807 25.9027 52.4641 26.1126C52.6575 26.6068 52.6875 26.8301 52.344 27.26C52.0505 27.6255 51.8971 27.7102 51.4502 27.7135C51.17 27.7135 50.8799 27.656 50.6164 27.5612C50.2129 27.4157 48.9956 26.7726 49.099 26.1769C49.1723 25.7437 48.5287 25.5744 48.452 26.0043Z" fill="#727272"/>
    <path d="M52.3207 21.6246C53.1578 21.8378 53.9915 21.4723 54.6952 21.0221C55.2088 20.6938 55.8858 20.0947 55.8258 19.4009C55.7758 18.8221 55.2088 18.5479 54.7019 18.487C53.8281 18.3787 52.971 18.7612 52.2606 19.2418C51.9038 19.4821 52.2506 20.0643 52.6075 19.8206C52.9777 19.5667 53.3712 19.3433 53.8081 19.2316C54.2116 19.1267 55.3856 18.9575 55.0287 19.807C54.7152 20.5618 53.1944 21.1474 52.4841 20.968C52.0672 20.863 51.9038 21.5197 52.3207 21.6246Z" fill="#727272"/>
    <path d="M49.209 15.3056C49.1557 14.7912 49.2624 14.2801 49.6292 13.901C49.896 13.6201 50.5431 13.2478 50.9233 13.4644C51.2601 13.6573 51.2368 14.4696 51.2368 14.8453C51.2334 15.3835 51.12 15.8946 50.9433 16.3989C50.7999 16.8084 51.4469 16.9709 51.5903 16.5647C51.8771 15.7456 51.9771 14.8859 51.8404 14.0228C51.747 13.4305 51.647 12.8416 50.99 12.7536C49.5359 12.5539 48.4053 13.9247 48.5487 15.3226C48.5854 15.749 49.2524 15.7389 49.209 15.3056Z" fill="#727272"/>
    <path d="M43.0158 17.5697C42.4989 16.9097 42.0553 15.7116 42.2287 14.862C42.3321 14.3475 42.4522 14.1986 42.9791 14.1445C43.506 14.0903 43.6361 14.2494 44.0163 14.5608C44.4032 14.8755 44.78 15.2005 45.1636 15.5186C45.4937 15.7928 45.9573 15.3088 45.6238 15.0312C44.6833 14.246 43.1725 12.4352 41.9752 13.8128C41.0481 14.8823 41.6718 16.9402 42.4455 17.9251C42.709 18.2602 43.2826 17.9116 43.0158 17.5697Z" fill="#727272"/>
    <path d="M41.8185 20.2065C40.5178 19.6785 38.8203 20.8529 39.0204 22.3354C39.2071 23.7401 41.4383 24.2613 42.4422 23.4693C42.7757 23.2053 42.4322 22.6231 42.0953 22.8905C41.5484 23.3237 40.1876 23.2087 39.7874 22.5622C39.2005 21.6246 40.6312 20.4434 41.4983 20.7988C41.8885 20.9579 42.2154 20.3689 41.8185 20.2065Z" fill="#727272"/>
  </g>
  <defs>
    <clipPath id="clip0_5_1980">
      <rect width="83" height="40" fill="white"/>
    </clipPath>
  </defs>
</svg>